<svg xmlns="http://www.w3.org/2000/svg" xmlns:xlink="http://www.w3.org/1999/xlink" width="106" height="30"><defs><linearGradient id="a" x1="41.509%" y1="100%" x2="42.509%" y2="0%" gradientUnits="objectBoundingBox"><stop offset="0" stop-color="#2B324A"/><stop offset="1" stop-color="#474F66"/></linearGradient><path id="b" d="M0 0h24v24H0z"/></defs><path d="M5.737 23.38A4 4 0 008.76 30h66.674a10 10 0 007.557-3.45l17.272-19.93A4 4 0 0097.24 0H30.566a10 10 0 00-7.557 3.45z"/><path d="M5.737 23.38A4 4 0 008.76 30h66.674a10 10 0 007.557-3.45l17.272-19.93A4 4 0 0097.24 0H30.566a10 10 0 00-7.557 3.45z" stroke="#415185" stroke-dasharray="0 0"/><g transform="translate(41 3)"><mask id="c"><use xlink:href="#b"/></mask><g mask="url(#c)"><path d="M21 19.5c.41 0 .75.34.75.75s-.34.75-.75.75H2.25c-.41 0-.75-.34-.75-.75v-15c0-.41.34-.75.75-.75s.75.34.75.75V19.5h18zm.668-11.78c.08.26.02.54-.17.73l-5.87 6.31a.74.74 0 01-1.04.05l-4.09-3.64-4.22 3.65c-.14.12-.31.18-.49.18-.31 0-.59-.19-.7-.49a.748.748 0 01.21-.83l4.71-4.08c.29-.25.71-.24.99.01l4.04 3.59 5.36-5.77a.752.752 0 011.27.29z"/></g></g></svg>